<svg xmlns="http://www.w3.org/2000/svg" viewBox="0 0 1200 675" role="img" aria-labelledby="title desc">
  <title id="title">Mobile Game Development Thumbnail</title>
  <desc id="desc">Stylized mobile app development scene for SGGeek projects.</desc>
  <defs>
    <linearGradient id="bg3" x1="0" y1="0" x2="1" y2="1">
      <stop offset="0" stop-color="#172554" />
      <stop offset="1" stop-color="#020617" />
    </linearGradient>
  </defs>
  <rect width="1200" height="675" fill="url(#bg3)" />
  <rect x="220" y="130" width="300" height="420" rx="30" fill="#0f172a" stroke="#7dd3fc" stroke-width="4" />
  <rect x="245" y="180" width="250" height="300" rx="16" fill="#0b1f3d" stroke="#60a5fa" stroke-width="2" />
  <rect x="305" y="500" width="130" height="20" rx="10" fill="#1d4ed8" />
  <circle cx="370" cy="260" r="60" fill="#2563eb" />
  <path d="M350 245l40 20-40 20z" fill="#dbeafe" />
  <rect x="620" y="160" width="360" height="240" rx="14" fill="#13264d" stroke="#8ab4ff" stroke-width="3" />
  <rect x="650" y="200" width="300" height="40" rx="10" fill="#1d4ed8" />
  <rect x="650" y="255" width="220" height="26" rx="8" fill="#334155" />
  <rect x="650" y="294" width="260" height="26" rx="8" fill="#334155" />
  <rect x="650" y="333" width="180" height="26" rx="8" fill="#334155" />
  <rect x="660" y="430" width="180" height="85" rx="12" fill="#0f766e" />
  <rect x="860" y="430" width="120" height="85" rx="12" fill="#7c3aed" />
  <text x="600" y="90" text-anchor="middle" font-size="56" fill="#dbeafe" font-family="Arial, Helvetica, sans-serif">Indie App Development</text>
</svg>
